<svg width="30%" height="auto" viewBox="0 0 1294 348" xmlns="http://www.w3.org/2000/svg">
<g clip-path="url(#clip0_3_158)">
<path d="M716.85 313.611C700.26 313.912 683.769 310.988 668.293 305.003C654.874 299.804 643.389 290.588 635.407 278.614C626.166 264.901 621.219 248.745 621.198 232.209V109.619H682.016V225.327C681.903 230.027 682.731 234.703 684.452 239.078C686.173 243.454 688.751 247.441 692.036 250.805C695.32 254.169 699.244 256.843 703.577 258.668C707.91 260.493 712.564 261.434 717.266 261.434C721.968 261.434 726.622 260.493 730.955 258.668C735.288 256.843 739.212 254.169 742.496 250.805C745.781 247.441 748.359 243.454 750.08 239.078C751.801 234.703 752.629 230.027 752.517 225.327V109.619L813.132 110.025V232.554C813.132 260.75 799.226 280.989 783.047 294.042C766.868 307.094 744.762 313.611 716.85 313.611Z" fill="#2B286B"/>
<path d="M917.817 312.859H857.06V34.8546H917.817V312.859Z" fill="#2B286B"/>
<path d="M1022.89 135.866V112.603C1022.89 101.641 1023.5 99.2656 1026.95 94.211C1028.65 91.8412 1030.9 89.9173 1033.5 88.6026C1036.11 87.2879 1038.99 86.6213 1041.91 86.6595C1044.51 86.7096 1047.08 87.2733 1049.47 88.3183C1051.86 89.3634 1054.01 90.8692 1055.81 92.7494L1085.43 48.8817C1078.45 43.9657 1070.62 40.3804 1062.33 38.3056C1054.16 36.0735 1045.73 34.9135 1037.26 34.8546C1013.24 34.8546 994.645 41.831 981.477 55.7836C968.309 69.7363 961.719 88.2091 961.705 111.202V312.859H1022.81V198.531H1059.81V140.21H1022.89V135.866Z" fill="#2B286B"/>
<path d="M1236.73 110.228V121.758C1222.35 112.927 1205.95 110.228 1188.53 110.228C1131.7 110.228 1085.45 153.608 1085.45 210.528C1085.45 237.868 1096.31 264.087 1115.64 283.418C1134.98 302.75 1161.2 313.61 1188.53 313.61C1205.61 313.437 1222.29 308.517 1236.73 299.401V313.103H1297.63V110.228H1236.73ZM1193.57 261.237C1183.53 261.237 1173.72 258.261 1165.37 252.684C1157.03 247.108 1150.52 239.182 1146.68 229.909C1142.84 220.636 1141.84 210.432 1143.79 200.587C1145.75 190.743 1150.59 181.7 1157.68 174.603C1164.78 167.505 1173.82 162.672 1183.67 160.714C1193.51 158.756 1203.72 159.761 1212.99 163.602C1222.26 167.443 1230.19 173.947 1235.77 182.293C1241.34 190.639 1244.32 200.451 1244.32 210.488C1244.32 223.947 1238.97 236.856 1229.45 246.373C1219.94 255.89 1207.03 261.237 1193.57 261.237Z" fill="#2B286B"/>
<path d="M574.529 254.782C572.831 256.699 570.76 258.25 568.442 259.339C566.125 260.428 563.609 261.032 561.05 261.115C558.087 261.113 555.165 260.425 552.513 259.104C549.861 257.783 547.551 255.866 545.764 253.503C542.252 248.428 541.704 246.053 541.704 235.091V169.381H577.797V111.039H541.663V34.8546H480.541V110.755H444.286V169.097H480.541V236.512C480.541 259.518 487.131 277.984 500.313 291.91C513.494 305.836 532.109 312.819 556.157 312.859C564.61 312.772 573.016 311.591 581.167 309.348C589.449 307.275 597.28 303.697 604.268 298.792L574.529 254.782Z" fill="#2B286B"/>
<path d="M129.944 69.7093C149.194 69.7093 164.799 54.1043 164.799 34.8546C164.799 15.6049 149.194 0 129.944 0C110.695 0 95.0896 15.6049 95.0896 34.8546C95.0896 54.1043 110.695 69.7093 129.944 69.7093Z" fill="#EF4B32"/>
<path d="M223.424 69.7093C242.674 69.7093 258.279 54.1043 258.279 34.8546C258.279 15.6049 242.674 0 223.424 0C204.175 0 188.57 15.6049 188.57 34.8546C188.57 54.1043 204.175 69.7093 223.424 69.7093Z" fill="#EF4B32"/>
<path d="M129.944 162.621C149.194 162.621 164.799 147.016 164.799 127.766C164.799 108.517 149.194 92.9119 129.944 92.9119C110.695 92.9119 95.0896 108.517 95.0896 127.766C95.0896 147.016 110.695 162.621 129.944 162.621Z" fill="#FFD222"/>
<path d="M223.424 162.621C242.674 162.621 258.279 147.016 258.279 127.766C258.279 108.517 242.674 92.9119 223.424 92.9119C204.175 92.9119 188.57 108.517 188.57 127.766C188.57 147.016 204.175 162.621 223.424 162.621Z" fill="#EF4B32"/>
<path d="M129.944 255.533C149.194 255.533 164.799 239.928 164.799 220.678C164.799 201.429 149.194 185.824 129.944 185.824C110.695 185.824 95.0896 201.429 95.0896 220.678C95.0896 239.928 110.695 255.533 129.944 255.533Z" fill="#EF4B32"/>
<path d="M35.2257 162.621C54.4754 162.621 70.0804 147.016 70.0804 127.766C70.0804 108.517 54.4754 92.9119 35.2257 92.9119C15.976 92.9119 0.371094 108.517 0.371094 127.766C0.371094 147.016 15.976 162.621 35.2257 162.621Z" fill="#EF4B32"/>
<path d="M35.2257 255.533C54.4754 255.533 70.0804 239.928 70.0804 220.678C70.0804 201.429 54.4754 185.824 35.2257 185.824C15.976 185.824 0.371094 201.429 0.371094 220.678C0.371094 239.928 15.976 255.533 35.2257 255.533Z" fill="#EF4B32"/>
<path d="M223.424 255.533C242.674 255.533 258.279 239.928 258.279 220.678C258.279 201.429 242.674 185.824 223.424 185.824C204.175 185.824 188.57 201.429 188.57 220.678C188.57 239.928 204.175 255.533 223.424 255.533Z" fill="#EF4B32"/>
<path d="M316.6 162.621C335.85 162.621 351.455 147.016 351.455 127.766C351.455 108.517 335.85 92.9119 316.6 92.9119C297.351 92.9119 281.746 108.517 281.746 127.766C281.746 147.016 297.351 162.621 316.6 162.621Z" fill="#EF4B32"/>
<path d="M316.6 255.533C335.85 255.533 351.455 239.928 351.455 220.678C351.455 201.429 335.85 185.824 316.6 185.824C297.351 185.824 281.746 201.429 281.746 220.678C281.746 239.928 297.351 255.533 316.6 255.533Z" fill="#EF4B32"/>
<path d="M129.944 348.465C149.194 348.465 164.799 332.86 164.799 313.61C164.799 294.361 149.194 278.756 129.944 278.756C110.695 278.756 95.0896 294.361 95.0896 313.61C95.0896 332.86 110.695 348.465 129.944 348.465Z" fill="#EF4B32"/>
<path d="M223.424 348.465C242.674 348.465 258.279 332.86 258.279 313.61C258.279 294.361 242.674 278.756 223.424 278.756C204.175 278.756 188.57 294.361 188.57 313.61C188.57 332.86 204.175 348.465 223.424 348.465Z" fill="#EF4B32"/>
</g>
<defs>
<clipPath id="clip0_3_158">
<rect width="1297.19" height="348.445" fill="white" transform="translate(0.371094)"/>
</clipPath>
</defs>
</svg>
