<svg width="30%" height="auto" viewBox="0 0 1294 348" xmlns="http://www.w3.org/2000/svg">
<path d="M714.375 312.667C696.139 312.667 680.037 309.822 665.94 304.066C651.907 298.376 640.978 289.581 633.153 277.747C625.329 265.913 619.056 250.457 619.056 231.51V109.289H679.584L679.52 224.655C679.52 243.926 694.716 259.705 714.569 259.834C734.358 259.963 749.813 243.926 749.813 224.655L749.878 109.289L810.342 109.677V231.833C810.342 259.963 796.503 280.139 780.336 293.138C764.169 306.2 742.182 312.667 714.375 312.667Z" />
<path d="M914.718 311.955H854.125V34.7259H914.718V311.955Z"/>
<path d="M1019.49 135.478V135.348V112.327C1019.49 101.398 1020.07 99.0052 1023.56 93.9612C1025.76 90.7925 1030.93 86.3305 1038.5 86.4598C1044.25 86.5245 1049.3 89.3698 1052.34 92.6032L1081.89 48.8235C1075.36 44.1674 1067.73 40.6107 1058.87 38.2827C1050.01 35.9547 1041.67 34.7907 1033.91 34.7907C1009.98 34.7907 991.421 41.7747 978.293 55.6782C965.166 69.5816 958.57 88.0118 958.57 110.904V169.04V311.955H1019.49V197.946H1056.41V139.81H1019.49V135.478Z" />
<path d="M1232.7 109.87V121.381C1218.34 112.586 1201.98 109.87 1184.65 109.87C1127.87 109.87 1081.89 153.132 1081.89 209.91C1081.89 266.688 1127.87 312.666 1184.65 312.666C1202.04 312.666 1218.34 307.234 1232.7 298.44V312.084H1293.35V109.87H1232.7ZM1189.56 260.48C1161.63 260.48 1138.99 237.846 1138.99 209.91C1138.99 181.974 1161.63 159.34 1189.56 159.34C1217.5 159.34 1240.13 181.974 1240.13 209.91C1240.13 237.846 1217.5 260.48 1189.56 260.48Z" />
<path d="M572.428 254.013C568.741 257.699 564.473 260.35 558.977 260.35C551.411 260.35 545.914 255.888 543.715 252.784C540.223 247.74 539.641 245.347 539.641 234.418V211.397V211.268V168.911H575.596V110.775H539.641V34.7259H478.725V110.387H442.576V168.523H478.725V235.776C478.725 258.669 485.321 277.099 498.448 291.002C511.576 304.906 530.135 311.89 554.062 311.89C561.887 311.89 570.164 310.726 579.024 308.398C587.883 306.07 595.514 302.513 602.045 297.857L572.428 254.013Z" />
<path d="M129.193 69.4526C148.372 69.4526 163.919 53.9051 163.919 34.7263C163.919 15.5475 148.372 0 129.193 0C110.014 0 94.4667 15.5475 94.4667 34.7263C94.4667 53.9051 110.014 69.4526 129.193 69.4526Z" />
<path d="M222.386 69.4526C241.565 69.4526 257.112 53.9051 257.112 34.7263C257.112 15.5475 241.565 0 222.386 0C203.207 0 187.66 15.5475 187.66 34.7263C187.66 53.9051 203.207 69.4526 222.386 69.4526Z" />
<path opacity="0.6" d="M129.193 162.121C148.372 162.121 163.919 146.573 163.919 127.394C163.919 108.216 148.372 92.6681 129.193 92.6681C110.014 92.6681 94.4667 108.216 94.4667 127.394C94.4667 146.573 110.014 162.121 129.193 162.121Z" />
<path d="M222.386 162.121C241.565 162.121 257.112 146.573 257.112 127.394C257.112 108.216 241.565 92.6681 222.386 92.6681C203.207 92.6681 187.66 108.216 187.66 127.394C187.66 146.573 203.207 162.121 222.386 162.121Z" />
<path d="M129.193 254.788C148.372 254.788 163.919 239.241 163.919 220.062C163.919 200.883 148.372 185.335 129.193 185.335C110.014 185.335 94.4667 200.883 94.4667 220.062C94.4667 239.241 110.014 254.788 129.193 254.788Z" />
<path d="M34.7263 162.121C53.9051 162.121 69.4526 146.573 69.4526 127.394C69.4526 108.216 53.9051 92.6681 34.7263 92.6681C15.5475 92.6681 0 108.216 0 127.394C0 146.573 15.5475 162.121 34.7263 162.121Z" />
<path d="M34.7263 254.788C53.9051 254.788 69.4526 239.241 69.4526 220.062C69.4526 200.883 53.9051 185.335 34.7263 185.335C15.5475 185.335 0 200.883 0 220.062C0 239.241 15.5475 254.788 34.7263 254.788Z" />
<path d="M222.386 254.788C241.565 254.788 257.112 239.241 257.112 220.062C257.112 200.883 241.565 185.335 222.386 185.335C203.207 185.335 187.66 200.883 187.66 220.062C187.66 239.241 203.207 254.788 222.386 254.788Z" />
<path d="M315.32 162.121C334.499 162.121 350.046 146.573 350.046 127.394C350.046 108.216 334.499 92.6681 315.32 92.6681C296.141 92.6681 280.594 108.216 280.594 127.394C280.594 146.573 296.141 162.121 315.32 162.121Z" />
<path d="M315.32 254.788C334.499 254.788 350.046 239.241 350.046 220.062C350.046 200.883 334.499 185.335 315.32 185.335C296.141 185.335 280.594 200.883 280.594 220.062C280.594 239.241 296.141 254.788 315.32 254.788Z" />
<path d="M129.193 347.392C148.372 347.392 163.919 331.844 163.919 312.665C163.919 293.487 148.372 277.939 129.193 277.939C110.014 277.939 94.4667 293.487 94.4667 312.665C94.4667 331.844 110.014 347.392 129.193 347.392Z" />
<path d="M222.386 347.392C241.565 347.392 257.112 331.844 257.112 312.665C257.112 293.487 241.565 277.939 222.386 277.939C203.207 277.939 187.66 293.487 187.66 312.665C187.66 331.844 203.207 347.392 222.386 347.392Z" />
</svg>
